General
ID                                       : 1 (0x1)
Format                                   : MPEG-TS
File size                                : 5.87 GiB
Duration                                 : 1h 29mn
Overall bit rate                         : 9 422 Kbps

Video
ID                                       : 169 (0xA9)
Menu ID                                  : 1 (0x1)
Format                                   : AVC
Format/Info                              : Advanced Video Codec
Format profile                           : High@L4.0
Format settings, CABAC                   : Yes
Format settings, ReFrames                : 3 frames
Codec ID                                 : 27
Duration                                 : 1h 29mn
Bit rate                                 : 8 762 Kbps
Width                                    : 1 920 pixels
Height                                   : 1 080 pixels
Display aspect ratio                     : 16:9
Frame rate                               : 25.000 fps
Standard                                 : Component
Color space                              : YUV
Chroma subsampling                       : 4:2:0
Bit depth                                : 8 bits
Scan type                                : Interlaced
Scan order                               : Top Field First
Bits/(Pixel*Frame)                       : 0.169
Stream size                              : 5.45 GiB (93%)

Audio
ID                                       : 449 (0x1C1)
Menu ID                                  : 1 (0x1)
Format                                   : MPEG Audio
Format version                           : Version 1
Format profile                           : Layer 2
Codec ID                                 : 3
Duration                                 : 1h 29mn
Bit rate mode                            : Constant
Bit rate                                 : 192 Kbps
Channel(s)                               : 2 channels
Sampling rate                            : 48.0 KHz
Compression mode                         : Lossy
Delay relative to video                  : -40ms
Stream size                              : 122 MiB (2%)
